<svg width="44" height="43" viewBox="0 0 44 43" fill="none" xmlns="http://www.w3.org/2000/svg">
<circle cx="20.1086" cy="23" r="20" fill="#F5F5F5"/>
<path d="M25.1087 16.7502C25.1087 16.0598 25.6684 15.5002 26.3587 15.5002C27.0491 15.5002 27.6087 16.0598 27.6087 16.7502C27.6087 17.4405 27.0491 18.0002 26.3587 18.0002C25.6684 18.0002 25.1087 17.4405 25.1087 16.7502Z" fill="#0AB9EE"/>
<path fill-rule="evenodd" clip-rule="evenodd" d="M20.1087 17.0627C16.8296 17.0627 14.1712 19.721 14.1712 23.0002C14.1712 26.2794 16.8296 28.9377 20.1087 28.9377C23.3879 28.9377 26.0462 26.2794 26.0462 23.0002C26.0462 19.721 23.3879 17.0627 20.1087 17.0627ZM16.0462 23.0002C16.0462 20.7565 17.8651 18.9377 20.1087 18.9377C22.3524 18.9377 24.1712 20.7565 24.1712 23.0002C24.1712 25.2438 22.3524 27.0627 20.1087 27.0627C17.8651 27.0627 16.0462 25.2438 16.0462 23.0002Z" fill="#0AB9EE"/>
<path fill-rule="evenodd" clip-rule="evenodd" d="M26.6816 11.5414C22.3483 11.0571 17.8692 11.0571 13.536 11.5414C11.0209 11.8225 8.99047 13.8038 8.69478 16.332C8.17661 20.7623 8.17661 25.238 8.69478 29.6684C8.99047 32.1965 11.0209 34.1778 13.536 34.4589C17.8692 34.9432 22.3483 34.9432 26.6816 34.4589C29.1966 34.1778 31.2271 32.1965 31.5227 29.6684C32.0409 25.238 32.0409 20.7623 31.5227 16.332C31.2271 13.8038 29.1966 11.8225 26.6816 11.5414ZM13.7442 13.4048C17.939 12.936 22.2785 12.936 26.4733 13.4048C28.1359 13.5907 29.4678 14.9027 29.6604 16.5498C30.1617 20.8354 30.1617 25.1649 29.6604 29.4506C29.4678 31.0977 28.1359 32.4097 26.4733 32.5955C22.2785 33.0643 17.939 33.0643 13.7442 32.5955C12.0816 32.4097 10.7497 31.0977 10.5571 29.4506C10.0558 25.1649 10.0558 20.8354 10.5571 16.5498C10.7497 14.9027 12.0816 13.5907 13.7442 13.4048Z" fill="#0AB9EE"/>
<path d="M43.1546 1.746L39.3026 3.6L39.7346 4.878L43.9286 4.104L43.1546 1.746ZM43.0286 6.93L40.0586 3.852L38.9786 4.626L40.9946 8.388L43.0286 6.93ZM38.0426 8.388L40.0586 4.626L38.9786 3.852L36.0086 6.93L38.0426 8.388ZM35.1086 4.104L39.3026 4.878L39.7346 3.6L35.8826 1.746L35.1086 4.104ZM38.2766 0L38.8526 4.23H40.1846L40.7606 0H38.2766Z" fill="#0AB9EE"/>
</svg>
