<svg id="Слой_1" data-name="Слой 1" xmlns="http://www.w3.org/2000/svg" xmlns:xlink="http://www.w3.org/1999/xlink" viewBox="0 0 428.72 270.58"><defs><style>.cls-1{fill:none;}.cls-2,.cls-3{font-size:39.49px;font-family:Archangelsk;}.cls-2,.cls-6{fill:#e52d1e;}.cls-3,.cls-5{fill:#4a4a49;}.cls-4{clip-path:url(#clip-path);}.cls-5,.cls-6{fill-rule:evenodd;}</style><clipPath id="clip-path"><rect class="cls-1" width="428.72" height="270.58"/></clipPath></defs><text class="cls-2" transform="translate(32.72 216.32)">СЕРДЦЕ</text><text class="cls-3" transform="translate(193.83 216.32)"><tspan xml:space="preserve"> БИЗНЕСА</tspan></text><g class="cls-4"><path class="cls-5" d="M178.41,98.17l40.93-40.93A39.36,39.36,0,0,1,275,112.9l-4.9,4.89-11.45-11.45,4.81-4.81A23.16,23.16,0,0,0,230.7,68.77l-29.4,29.4,28.07,28.06-11.45,11.45L178.59,98.35Z"/><path class="cls-6" d="M265.21,122.91,225.89,83.58,214.44,95l28.06,28.06-27.76,27.76-49.48-49.48A23.16,23.16,0,0,1,198,68.61l11.45-11.47a39.36,39.36,0,1,0-55.75,55.59l49.57,49.57-.07.07,11.46,11.44L265.4,123.1Z"/></g></svg>