<svg width="41" height="40" viewBox="0 0 41 40" fill="none" xmlns="http://www.w3.org/2000/svg">
<circle cx="20.1086" cy="20" r="20" fill="#F5F5F5"/>
<path fill-rule="evenodd" clip-rule="evenodd" d="M12.3431 22.5245C12.3978 22.5429 12.4531 22.556 12.5082 22.5641C12.5684 22.7054 12.6462 22.8884 12.7369 23.1023C12.9582 23.6243 13.2564 24.3303 13.5643 25.0669C14.1921 26.569 14.8254 28.1174 14.9652 28.5606C15.1383 29.1085 15.3214 29.481 15.5212 29.7353C15.6245 29.8668 15.7439 29.9817 15.8837 30.0686C15.9541 30.1124 16.0285 30.1483 16.1061 30.175C16.1095 30.1762 16.1129 30.1774 16.1163 30.1785C16.5163 30.3295 16.881 30.2666 17.1094 30.1897C17.2315 30.1485 17.3304 30.0988 17.4005 30.0586C17.4362 30.038 17.4664 30.0189 17.4904 30.0027L17.4961 29.9988L21.0289 27.7957L25.1095 30.9242C25.1698 30.9704 25.2354 31.0091 25.305 31.0395C25.7952 31.2534 26.2699 31.328 26.7165 31.267C27.1623 31.2061 27.5163 31.0188 27.7797 30.8081C28.0377 30.6016 28.2127 30.3704 28.3216 30.1986C28.3772 30.1109 28.419 30.0333 28.4484 29.9739C28.4632 29.944 28.4751 29.9183 28.4843 29.8976L28.4961 29.8703L28.5005 29.8596L28.5024 29.8551L28.5033 29.853L28.504 29.851C28.5255 29.7974 28.5419 29.7419 28.5532 29.6853L32.2784 10.9034C32.2904 10.8434 32.2964 10.7823 32.2964 10.721C32.2964 10.171 32.0891 9.64801 31.6018 9.33064C31.1853 9.0594 30.7214 9.04772 30.4282 9.06998C30.1119 9.09399 29.8197 9.17207 29.6237 9.23447C29.5217 9.26694 29.4361 9.29827 29.3745 9.32217C29.3435 9.33418 29.3181 9.34449 29.2991 9.35235L29.2849 9.35833L8.39277 17.554L8.39006 17.555C8.37675 17.5598 8.35966 17.5662 8.33934 17.5741C8.29889 17.5899 8.24468 17.6121 8.18137 17.6408C8.05789 17.6967 7.88466 17.7842 7.7069 17.9059C7.42292 18.1004 6.7698 18.633 6.87978 19.5121C6.96752 20.2135 7.44799 20.6442 7.74073 20.8513C7.90147 20.9651 8.05418 21.0464 8.16539 21.0994C8.21698 21.1239 8.3241 21.1674 8.37058 21.1863L8.38231 21.1911L12.3431 22.5245ZM30.0161 11.0848L30.0132 11.0861C30.0028 11.0906 29.9923 11.095 29.9817 11.0991L9.06421 19.3047C9.05328 19.309 9.04228 19.3131 9.0312 19.317L9.01956 19.3214C9.00618 19.3266 8.98365 19.3357 8.95537 19.3485C8.93934 19.3558 8.92261 19.3637 8.90555 19.3723C8.92898 19.3855 8.95142 19.3969 8.97135 19.4064C8.99049 19.4155 9.00509 19.4218 9.01308 19.425L12.9414 20.7475C13.0133 20.7717 13.0803 20.8038 13.1418 20.8425L26.1128 13.2493L26.1249 13.2422C26.1344 13.2366 26.1468 13.2294 26.1617 13.221C26.1912 13.2043 26.2317 13.1821 26.28 13.1575C26.37 13.1117 26.514 13.0437 26.6763 12.9936C26.7893 12.9586 27.1224 12.8603 27.4825 12.9758C27.7047 13.0471 27.9349 13.2003 28.0845 13.46C28.1589 13.589 28.1985 13.7185 28.2177 13.8371C28.2687 14.024 28.2606 14.2085 28.2207 14.3678C28.1347 14.7109 27.8937 14.9786 27.6743 15.1833C27.4864 15.3588 25.0546 17.7036 22.6557 20.0184C21.4594 21.1727 20.2753 22.3156 19.3902 23.1699L18.8089 23.7311L26.1488 29.3584C26.3172 29.4187 26.4167 29.4156 26.4627 29.4093C26.5176 29.4018 26.5625 29.3807 26.6083 29.344C26.6596 29.303 26.7045 29.2476 26.738 29.1947L26.7394 29.1925L30.3525 10.9763C30.2988 10.9892 30.2446 11.0045 30.1924 11.0211C30.1332 11.04 30.0844 11.0579 30.052 11.0705C30.036 11.0767 30.0245 11.0814 30.0182 11.084L30.0161 11.0848ZM19.4395 26.5772L17.9751 25.4545L17.6203 27.7117L19.4395 26.5772ZM16.6318 23.2268L18.088 21.8209C18.9731 20.9665 20.1573 19.8235 21.3538 18.6691L22.5694 17.4963L14.4194 22.2672L14.4631 22.3703C14.6852 22.8942 14.9848 23.6034 15.2943 24.3439C15.5257 24.8976 15.7677 25.4806 15.9881 26.0203L16.3419 23.7698C16.376 23.5528 16.482 23.365 16.6318 23.2268Z" fill="#0AB9EE"/>
</svg>
