<svg width="41" height="40" viewBox="0 0 41 40" fill="none" xmlns="http://www.w3.org/2000/svg">
<circle cx="20.1089" cy="20" r="20" fill="#F5F5F5"/>
<path d="M15.0648 12.7523C14.8326 12.7183 14.5958 12.7649 14.3938 12.8843H14.3765C13.9075 13.1592 13.485 13.5067 13.1247 13.9138C12.8253 14.26 12.6629 14.6103 12.6203 14.9474C12.5948 15.1484 12.6121 15.3494 12.6719 15.5413L12.6933 15.5544C13.0304 16.5454 13.4709 17.4986 14.009 18.396C14.7022 19.6568 15.5553 20.8228 16.5471 21.8651L16.5766 21.9078L16.6234 21.9422L16.6529 21.9767L16.6874 22.0062C17.7335 23.0009 18.9023 23.858 20.1655 24.5566C21.6092 25.3424 22.4853 25.714 23.0112 25.8682V25.8764C23.1654 25.9232 23.3056 25.9445 23.4467 25.9445C23.8949 25.9117 24.3191 25.7298 24.6518 25.4277C25.057 25.0673 25.4006 24.6431 25.669 24.1718V24.1636C25.9208 23.6895 25.8355 23.2408 25.4721 22.9373C24.7443 22.3011 23.9573 21.7361 23.1219 21.2499C22.5624 20.9464 21.994 21.1301 21.7635 21.4377L21.2721 22.0571C21.0203 22.3647 20.5625 22.322 20.5625 22.322L20.5494 22.3302C17.1361 21.4582 16.2255 18.0023 16.2255 18.0023C16.2255 18.0023 16.1829 17.5322 16.4987 17.2927L17.1139 16.7972C17.4084 16.5577 17.6135 15.99 17.2977 15.4298C16.8148 14.5932 16.251 13.806 15.6144 13.0796C15.4752 12.9083 15.28 12.7918 15.0631 12.7506L15.0648 12.7523Z" fill="#EE5645"/>
<path d="M20.8329 11.25C20.4878 11.25 20.2079 11.5298 20.2079 11.875C20.2079 12.2202 20.4878 12.5 20.8329 12.5C22.4135 12.5 23.7269 13.0166 24.7645 14.0059C25.2986 14.5477 25.7144 15.1889 25.9874 15.8907C26.2614 16.595 26.386 17.3461 26.354 18.0984C26.3393 18.4433 26.607 18.7348 26.9519 18.7494C27.2967 18.7641 27.5882 18.4964 27.6029 18.1515C27.6422 17.226 27.4888 16.3026 27.1523 15.4375C26.8158 14.5725 26.3036 13.7842 25.6473 13.1206L25.6347 13.1086C24.3473 11.8773 22.7153 11.25 20.8329 11.25Z" fill="#EE5645"/>
<path d="M20.7904 13.3054C20.4452 13.3054 20.1654 13.5852 20.1654 13.9304C20.1654 14.2756 20.4452 14.5554 20.7904 14.5554H20.8108C21.9513 14.6358 22.7813 15.016 23.3631 15.64C23.9587 16.2827 24.2673 17.081 24.2444 18.0687C24.2364 18.4138 24.5097 18.7 24.8548 18.708C25.1999 18.716 25.4861 18.4427 25.4941 18.0976C25.5241 16.8008 25.1071 15.6825 24.2792 14.7896L24.2781 14.7884C23.4323 13.8808 22.272 13.4006 20.8741 13.3068L20.8532 13.3054H20.7904Z" fill="#EE5645"/>
<path d="M20.7668 15.3983C20.4221 15.3802 20.1279 15.6449 20.1098 15.9896C20.0916 16.3343 20.3563 16.6285 20.701 16.6466C21.2244 16.6742 21.5579 16.8311 21.7677 17.0429C21.9783 17.2556 22.1359 17.5962 22.1647 18.1303C22.1832 18.4749 22.4776 18.7393 22.8223 18.7208C23.167 18.7023 23.4314 18.4078 23.4129 18.0631C23.3725 17.3131 23.1378 16.65 22.6559 16.1633C22.173 15.6758 21.5137 15.4377 20.7668 15.3983Z" fill="#EE5645"/>
<path fill-rule="evenodd" clip-rule="evenodd" d="M13.9423 7.97934C17.9199 7.09022 22.0448 7.09022 26.0224 7.97934L26.4462 8.07407C28.8172 8.60405 30.6885 10.4226 31.2861 12.7774C32.2958 16.756 32.2958 20.9237 31.2861 24.9023C30.6885 27.2571 28.8172 29.0756 26.4462 29.6056L26.0224 29.7003C23.5239 30.2588 20.9673 30.4665 18.4255 30.3234L15.109 33.2908C14.8543 33.5187 14.4959 33.5899 14.1734 33.4767C13.851 33.3636 13.6157 33.0839 13.5593 32.7469L13.0107 29.4702C10.8828 28.809 9.23287 27.0863 8.67862 24.9023C7.66897 20.9237 7.66897 16.756 8.67862 12.7774C9.27622 10.4226 11.1475 8.60405 13.5185 8.07407L13.9423 7.97934ZM25.6134 9.80918C21.9051 8.98027 18.0596 8.98027 14.3513 9.80918L13.9275 9.90391C12.2465 10.2797 10.9197 11.569 10.496 13.2386C9.56318 16.9145 9.56318 20.7652 10.496 24.4411C10.9197 26.1107 12.2465 27.4 13.9275 27.7758L14.0395 27.8008C14.4118 27.884 14.6966 28.1846 14.7596 28.5609L15.1275 30.7583L17.4679 28.6642C17.6569 28.4951 17.9063 28.4098 18.1592 28.4277C20.6511 28.6041 23.1622 28.4184 25.6134 27.8705L26.0372 27.7758C27.7182 27.4 29.045 26.1107 29.4687 24.4411C30.4016 20.7652 30.4016 16.9145 29.4687 13.2386C29.045 11.569 27.7182 10.2797 26.0372 9.90391L25.6134 9.80918Z" fill="#EE5645"/>
</svg>
