<svg width="41" height="40" viewBox="0 0 41 40" fill="none" xmlns="http://www.w3.org/2000/svg">
<circle cx="20.1086" cy="20" r="20" fill="#F5F5F5"/>
<path d="M15.0645 12.7523C14.8324 12.7183 14.5955 12.7649 14.3935 12.8843H14.3763C13.9073 13.1592 13.4848 13.5067 13.1245 13.9138C12.8251 14.26 12.6627 14.6103 12.62 14.9474C12.5946 15.1484 12.6118 15.3494 12.6717 15.5413L12.693 15.5544C13.0302 16.5454 13.4707 17.4986 14.0088 18.396C14.702 19.6568 15.5551 20.8228 16.5468 21.8651L16.5764 21.9078L16.6231 21.9422L16.6527 21.9767L16.6871 22.0062C17.7332 23.0009 18.902 23.858 20.1652 24.5566C21.609 25.3424 22.4851 25.714 23.0109 25.8682V25.8764C23.1651 25.9232 23.3054 25.9445 23.4465 25.9445C23.8946 25.9117 24.3189 25.7298 24.6515 25.4277C25.0568 25.0673 25.4004 24.6431 25.6687 24.1718V24.1636C25.9206 23.6895 25.8352 23.2408 25.4718 22.9373C24.7441 22.3011 23.9571 21.7361 23.1217 21.2499C22.5622 20.9464 21.9937 21.1301 21.7632 21.4377L21.2718 22.0571C21.02 22.3647 20.5623 22.322 20.5623 22.322L20.5492 22.3302C17.1358 21.4582 16.2253 18.0023 16.2253 18.0023C16.2253 18.0023 16.1826 17.5322 16.4985 17.2927L17.1137 16.7972C17.4082 16.5577 17.6133 15.99 17.2974 15.4298C16.8146 14.5932 16.2508 13.806 15.6142 13.0796C15.475 12.9083 15.2797 12.7918 15.0629 12.7506L15.0645 12.7523Z" fill="#0AB9EE"/>
<path d="M20.8327 11.25C20.4875 11.25 20.2077 11.5298 20.2077 11.875C20.2077 12.2202 20.4875 12.5 20.8327 12.5C22.4133 12.5 23.7267 13.0166 24.7642 14.0059C25.2984 14.5477 25.7141 15.1889 25.9871 15.8907C26.2611 16.595 26.3857 17.3461 26.3538 18.0984C26.3391 18.4433 26.6068 18.7348 26.9516 18.7494C27.2965 18.7641 27.588 18.4964 27.6026 18.1515C27.642 17.226 27.4886 16.3026 27.1521 15.4375C26.8156 14.5725 26.3034 13.7842 25.647 13.1206L25.6345 13.1086C24.347 11.8773 22.7151 11.25 20.8327 11.25Z" fill="#0AB9EE"/>
<path d="M20.7902 13.3054C20.445 13.3054 20.1652 13.5852 20.1652 13.9304C20.1652 14.2756 20.445 14.5554 20.7902 14.5554H20.8106C21.9511 14.6358 22.781 15.016 23.3629 15.64C23.9585 16.2827 24.2671 17.081 24.2442 18.0687C24.2362 18.4138 24.5095 18.7 24.8546 18.708C25.1996 18.716 25.4859 18.4427 25.4939 18.0976C25.5239 16.8008 25.1068 15.6825 24.279 14.7896L24.2779 14.7884C23.4321 13.8808 22.2718 13.4006 20.8739 13.3068L20.853 13.3054H20.7902Z" fill="#0AB9EE"/>
<path d="M20.7665 15.3983C20.4218 15.3802 20.1277 15.6449 20.1095 15.9896C20.0914 16.3343 20.3561 16.6285 20.7008 16.6466C21.2241 16.6742 21.5577 16.8311 21.7674 17.0429C21.9781 17.2556 22.1357 17.5962 22.1644 18.1303C22.183 18.4749 22.4774 18.7393 22.8221 18.7208C23.1668 18.7023 23.4312 18.4078 23.4126 18.0631C23.3723 17.3131 23.1376 16.65 22.6556 16.1633C22.1728 15.6758 21.5134 15.4377 20.7665 15.3983Z" fill="#0AB9EE"/>
<path fill-rule="evenodd" clip-rule="evenodd" d="M13.9421 7.97934C17.9197 7.09022 22.0446 7.09022 26.0222 7.97934L26.446 8.07407C28.817 8.60405 30.6883 10.4226 31.2859 12.7774C32.2955 16.756 32.2955 20.9237 31.2859 24.9023C30.6883 27.2571 28.817 29.0756 26.446 29.6056L26.0222 29.7003C23.5237 30.2588 20.967 30.4665 18.4253 30.3234L15.1088 33.2908C14.8541 33.5187 14.4956 33.5899 14.1732 33.4767C13.8508 33.3636 13.6154 33.0839 13.559 32.7469L13.0105 29.4702C10.8825 28.809 9.23262 27.0863 8.67838 24.9023C7.66873 20.9237 7.66873 16.756 8.67838 12.7774C9.27597 10.4226 11.1473 8.60405 13.5183 8.07407L13.9421 7.97934ZM25.6132 9.80918C21.9049 8.98027 18.0594 8.98027 14.3511 9.80918L13.9273 9.90391C12.2463 10.2797 10.9195 11.569 10.4958 13.2386C9.56293 16.9145 9.56293 20.7652 10.4958 24.4411C10.9195 26.1107 12.2462 27.4 13.9273 27.7758L14.0392 27.8008C14.4116 27.884 14.6964 28.1846 14.7594 28.5609L15.1272 30.7583L17.4677 28.6642C17.6566 28.4951 17.9061 28.4098 18.159 28.4277C20.6508 28.6041 23.162 28.4184 25.6132 27.8705L26.037 27.7758C27.718 27.4 29.0448 26.1107 29.4685 24.4411C30.4013 20.7652 30.4013 16.9145 29.4685 13.2386C29.0448 11.569 27.718 10.2797 26.037 9.90391L25.6132 9.80918Z" fill="#0AB9EE"/>
</svg>
