<?xml version="1.0" encoding="utf-8"?>
<!-- Generator: Adobe Illustrator 18.1.0, SVG Export Plug-In . SVG Version: 6.00 Build 0)  -->
<svg version="1.1" id="Layer_3" xmlns="http://www.w3.org/2000/svg" xmlns:xlink="http://www.w3.org/1999/xlink" x="0px" y="0px"
	 viewBox="0 292.8 595.3 256.2" enable-background="new 0 292.8 595.3 256.2" xml:space="preserve">
<g>
	<rect y="292.8" fill="#D2232A" width="595.3" height="256.2"/>
	<path fill="#FFFFFF" d="M159.5,340.5v54h6.1v30.2h-19.1v-13.2h-28.4v13.2H97.6v-30.4h5.1c3.5-6.9,5.1-12.4,5.9-17.7
		c0.6-2.8,2-11.2,2-26.2v-10.1h48.9V340.5z M126.9,362.8c0,3.9-0.4,11.4-2,18.7c-0.6,3-1.6,6.7-4.1,13h17.9v-37.5h-12v5.7H126.9z"/>
	<path fill="#FFFFFF" d="M220.4,394.1c-0.8,3.7-2.8,8.9-8.5,13c-6.1,4.5-13.2,5.3-18.5,5.3c-6.5,0-13.4-1.2-19.5-7.1
		c-4.3-4.1-8.3-10.8-8.3-20.5c0-10.8,4.7-17.5,9.1-21.1c6.5-5.5,14.2-6.3,19.1-6.3c5.3,0,13.2,1.2,19.5,7.9
		c6.9,7.3,7.3,16.4,7.3,20.9v3.2h-34.5c-0.2,2.6,0.6,5.3,1.8,7.1c1.2,1.8,3.2,3.2,6.3,3.2c3,0,4.7-1.2,5.5-2c1-1,2-2.6,2-4.9
		L220.4,394.1z M200.9,379.2c0.2-2.4-0.4-5.1-1.8-6.7c-1.8-2.2-4.1-2.4-5.3-2.4c-1.4,0-3.5,0.2-5.5,2.4c-1.4,1.6-2.4,3.9-2.2,6.7
		H200.9z"/>
	<path fill="#FFFFFF" d="M273.4,358.5v52.8h-19.1v-39h-7.7c-0.4,7.9-0.6,12.6-1.2,16.8c-1.2,9.9-3.2,14.8-7.5,18.7
		c-3.4,3-6.7,4.1-11.4,4.1c-2,0-4.1-0.2-6.1-0.6v-13.8h1.6c1.6-0.2,4.1-0.6,5.9-3.5c1.6-2.6,2.6-6.5,3.2-16.6
		c0.4-4.5,0.4-9.5,0.4-13.8v-5.1C231.4,358.5,273.4,358.5,273.4,358.5z"/>
	<path fill="#FFFFFF" d="M321.9,364.6c5.5,5.1,8.5,12.8,8.5,20.3c0,7.5-3,15.2-8.5,20.3c-4.1,3.7-10.1,7.1-18.9,7.1
		c-8.9,0-14.8-3.4-18.9-7.1c-5.5-5.1-8.5-12.8-8.5-20.3c0-7.5,3-15.2,8.5-20.3c4.1-3.7,10.1-7.1,18.9-7.1
		C311.8,357.5,317.7,360.8,321.9,364.6 M308.5,395.9c1.2-2.6,1.4-5.7,1.4-11c0-5.3-0.2-8.7-1.4-11c-1.2-2.6-3-3.7-5.5-3.7
		c-2.4,0-4.3,1.2-5.5,3.7c-1.2,2.6-1.4,5.7-1.4,11c0,4.5,0.2,8.1,1.4,11c1.2,2.4,2.6,3.7,5.5,3.7
		C305.3,399.9,307.3,398.7,308.5,395.9"/>
	<path fill="#FFFFFF" d="M364.7,358.5c4.3,0,9.1,0.2,12.8,3c2.4,1.8,4.7,5.1,4.7,10.1c0,3.4-1.2,6.3-3,8.3c-1.6,1.8-4.1,3.2-6.9,3.5
		v0.2c3.2,0.2,6.5,1.6,8.9,3.7c2.4,2.4,3.7,5.7,3.7,9.1c0,4.9-2.4,9.3-5.5,11.6c-4.3,3.4-10.1,3.4-14.6,3.4h-31.9v-52.8H364.7z
		 M352.6,379.6h3.5c1.6,0,3.4-0.2,4.7-1.2c0.8-0.8,1.8-2,1.8-4.1c0-2.4-1.4-3.5-2.2-4.1c-1.6-1-3.2-1-4.5-1h-3.5v10.4H352.6z
		 M352.6,401h5.3c1.6,0,3.2-0.2,4.7-1.6c1-1,1.6-2.6,1.6-3.9c0-1.8-0.8-3.5-2.2-4.5c-1.2-0.8-2.8-1.2-4.1-1.2h-5.3L352.6,401
		L352.6,401z"/>
	<path fill="#FFFFFF" d="M430.9,364.6c5.5,5.1,8.5,12.8,8.5,20.3c0,7.5-3,15.2-8.5,20.3c-4.1,3.7-10.1,7.1-18.9,7.1
		c-8.9,0-14.8-3.4-18.9-7.1c-5.5-5.1-8.5-12.8-8.5-20.3c0-7.5,3-15.2,8.5-20.3c3.9-3.7,10.1-7.1,18.9-7.1
		C420.8,357.5,426.9,360.8,430.9,364.6 M417.5,395.9c1.2-2.6,1.4-5.7,1.4-11c0-5.3-0.2-8.7-1.4-11c-1.2-2.6-3-3.7-5.5-3.7
		c-2.4,0-4.3,1.2-5.5,3.7s-1.4,5.7-1.4,11c0,4.5,0.2,8.1,1.4,11c1.2,2.4,2.6,3.7,5.5,3.7C414.5,399.9,416.3,398.7,417.5,395.9"/>
	<path fill="#FFFFFF" d="M461.6,358.5v23.1c0,1.4,0,3.5-0.4,5.1c1.2-1.6,12.4-24.6,12.4-24.6v-3.7h19.5v52.8h-19.5v-21.7
		c0-1-0.4-2.6,0-3.9c-0.8,1.8-12,25.6-12,25.6h-20.1v-52.6H461.6z M462.6,335c0,1.2,0.2,2.8,0.8,3.7c0.6,1,1.6,2.4,3.9,2.4
		c2.4,0,3.4-1.4,3.9-2.4c0.6-1,0.8-2.8,0.8-3.7h14.2c-0.2,5.1-2.6,8.5-4.7,10.4c-4.9,4.5-13,4.5-14.2,4.5c-1.2,0-9.3-0.2-14.2-4.5
		c-2.2-2-4.5-5.3-4.7-10.4C448.4,335,462.6,335,462.6,335z"/>
	<path fill="#FFFFFF" d="M118.1,430.4v19.9c1.4,0,4.9-0.6,5.9-1.4c1.4-1.4,2-3.7,2.6-5.5c0.8-3.2,1.2-5.7,2-7.9
		c1.2-3,2.6-4.3,4.1-4.9h18.1c-1.4,1.4-2.6,3-3.4,5.3c-0.6,1.6-0.2,1-2.8,9.1c-0.8,2.4-1.6,5.1-3.5,7.3s-3.9,2.6-6.7,3v0.2
		c3.2,0.6,5.3,1.6,7.7,4.1c2.6,2.8,3.5,5.7,4.3,8.7l1.6,6.1c1.6,5.7,2,8.5,4.9,11.4h-20.7c-1.2-0.6-2-1.4-2.8-2.8
		c-1.4-2.6-1.8-5.5-2.4-8.3c-1.6-7.3-2.4-8.7-3-9.5c-1.2-1.4-5.1-1.6-6.3-1.6v21.9H97.6v-55.2L118.1,430.4L118.1,430.4z"/>
	<path fill="#FFFFFF" d="M190.4,430.4c4.5,0,9.5,0.2,13.2,3.2c2.6,1.8,4.9,5.3,4.9,10.4c0,3.4-1.2,6.5-3.2,8.7
		c-1.8,1.8-4.1,3.4-7.1,3.7v0.2c3.4,0.2,6.9,1.6,9.3,3.9s3.9,5.9,3.9,9.5c0,5.1-2.4,9.7-5.7,12c-4.5,3.5-10.4,3.5-15.2,3.5h-33.7
		v-55.2H190.4L190.4,430.4z M177.8,452.3h3.7c1.8,0,3.5-0.2,4.9-1.4c0.8-0.8,2-2,2-4.3c0-2.6-1.4-3.7-2.2-4.3c-1.6-1-3.4-1-4.7-1
		h-3.7V452.3z M177.8,474.8h5.5c1.6,0,3.4-0.2,4.9-1.6c1-1,1.8-2.6,1.8-4.1c0-1.8-0.8-3.7-2.4-4.7c-1.2-0.8-3-1.2-4.3-1.2h-5.5
		L177.8,474.8L177.8,474.8z"/>
	<path fill="#FFFFFF" d="M216.4,446.6c1.8-7.1,5.9-10.8,8.9-12.8c5.9-3.9,13.4-4.3,19.3-4.3c8.9,0,18.9,1,23.5,9.7
		c2.2,4.1,2.2,8.7,2.2,13v21.5c0,3.2,0,6.5,1.6,12h-19.9c-0.4-1.4-0.8-3.7-0.8-7.7c-2.2,3.4-6.9,8.7-17.5,8.7
		c-14,0-18.9-8.9-18.9-16.2c0-4.9,2-9.9,6.1-13.2c6.3-5.1,17.5-6.7,25.4-7.3l3.9-0.4v-0.8c0-1,0-3.4-1.2-4.7
		c-0.8-0.8-2.4-1.6-5.1-1.6c-5.7,0-7.7,3.2-8.1,5.9L216.4,446.6z M246.8,460.2c-5.1,0.8-7.3,2.2-8.1,2.8c-2.2,1.6-3,3.9-3,5.5
		c0,2.8,2,4.9,5.7,4.9c7.9,0,8.5-6.7,8.5-10.6v-3.2L246.8,460.2z"/>
	<path fill="#FFFFFF" d="M275.6,502.9v-72.5h19.1v7.9h0.2c1.2-2.2,3-4.3,4.9-5.9c3-2.2,6.9-3.2,11.2-3.2c6.5,0,10.6,2.8,13.8,7.5
		c4.5,6.5,5.1,14.8,5.1,20.7c0,7.1-1,15.2-5.5,21.3c-4.5,6.3-10.1,7.9-14.8,7.9c-3,0-5.9-0.8-8.1-1.8c-2.8-1.4-4.3-3.2-5.5-5.1h-0.2
		v23.5h-20.3V502.9z M296.1,463.3c0,3,0.2,5.3,1.2,7.1c0.6,0.8,1.8,3,4.7,3c2.4,0,4.5-1.2,5.9-4.7c1-2.4,1.2-5.5,1.2-11
		c0-5.9-0.6-8.7-1.4-10.8c-1.4-3-3.5-3.9-5.7-3.9c-1.6,0-3,0.6-3.9,1.6c-1.8,1.8-2,4.7-2,6.7L296.1,463.3L296.1,463.3z"/>
	<polygon fill="#FFFFFF" points="380.4,430.4 380.4,444.8 365.8,444.8 365.8,485.6 345.1,485.6 345.1,444.8 330.6,444.8 
		330.6,430.4 	"/>
	<g>
		<path fill="#FFFFFF" d="M382.2,445c1.8-5.5,5.3-9.3,8.3-11.2c5.9-3.9,13.4-4.3,19.3-4.3c8.9,0,18.9,1,23.5,9.7
			c2.2,4.1,2.2,8.7,2.2,13v21.5c0,3.2,0,6.5,1.6,12h-19.9c-0.4-1.4-0.8-3.7-0.8-7.7c-2.2,3.4-6.9,8.7-17.5,8.7
			c-14,0-18.9-8.9-18.9-16.2c0-4.9,2-9.9,6.1-13.2c6.3-5.1,17.5-6.7,25.4-7.3l3.9-0.4v-0.8c0-1,0-3.4-1.2-4.7
			c-0.8-0.8-2.4-1.6-5.1-1.6c-5.7,0-7.7,3.2-8.1,5.9L382.2,445z M412,460.2c-5.1,0.8-7.3,2.2-8.1,2.8c-2.2,1.6-3,3.9-3,5.5
			c0,2.8,2,4.9,5.7,4.9c7.9,0,8.5-6.7,8.5-10.6v-3.2L412,460.2z"/>
		<path fill="#FFFFFF" d="M493.2,430.4v55.2h-19.5v-40.8h-7.3c-0.4,8.3-0.6,13.2-1.2,17.5c-1.2,10.2-3.4,15.6-7.9,19.7
			c-3.5,3.2-7.1,4.3-12,4.3c-2.2,0-4.1-0.2-6.3-0.6v-14.4h1.6c1.8-0.2,4.3-0.6,6.3-3.7c1.6-2.6,2.6-6.7,3.4-17.3
			c0.4-4.7,0.4-9.9,0.4-14.4v-5.3h42.6V430.4z"/>
	</g>
</g>
</svg>
