<svg width="429" height="271" viewBox="0 0 429 271" fill="none" xmlns="http://www.w3.org/2000/svg">
<g clip-path="url(#clip0_2118_12018)">
<path d="M59.3084 195.085H55.8306C55.6249 194.085 55.265 193.206 54.7508 192.449C54.2459 191.691 53.6289 191.056 52.8997 190.541C52.1798 190.018 51.3805 189.625 50.5017 189.363C49.6229 189.102 48.7067 188.971 47.7531 188.971C46.0142 188.971 44.4389 189.41 43.0272 190.289C41.6249 191.168 40.5077 192.463 39.6756 194.173C38.8529 195.884 38.4415 197.983 38.4415 200.47C38.4415 202.957 38.8529 205.056 39.6756 206.767C40.5077 208.477 41.6249 209.772 43.0272 210.651C44.4389 211.53 46.0142 211.969 47.7531 211.969C48.7067 211.969 49.6229 211.838 50.5017 211.577C51.3805 211.315 52.1798 210.927 52.8997 210.413C53.6289 209.889 54.2459 209.249 54.7508 208.491C55.265 207.725 55.6249 206.846 55.8306 205.855H59.3084C59.0466 207.323 58.5698 208.636 57.878 209.796C57.1862 210.955 56.3261 211.941 55.2977 212.755C54.2693 213.559 53.1147 214.171 51.8339 214.592C50.5625 215.012 49.2022 215.223 47.7531 215.223C45.3037 215.223 43.1254 214.624 41.2182 213.428C39.311 212.231 37.8105 210.529 36.7167 208.323C35.6228 206.117 35.0759 203.499 35.0759 200.47C35.0759 197.441 35.6228 194.823 36.7167 192.617C37.8105 190.411 39.311 188.709 41.2182 187.512C43.1254 186.316 45.3037 185.717 47.7531 185.717C49.2022 185.717 50.5625 185.928 51.8339 186.348C53.1147 186.769 54.2693 187.386 55.2977 188.2C56.3261 189.004 57.1862 189.985 57.878 191.144C58.5698 192.294 59.0466 193.608 59.3084 195.085ZM64.9283 214.83V186.11H82.2613V189.195H68.4061V198.899H81.3638V201.985H68.4061V211.745H82.4856V214.83H64.9283ZM88.5297 214.83V186.11H98.234C100.487 186.11 102.329 186.517 103.759 187.33C105.199 188.134 106.265 189.223 106.957 190.598C107.648 191.972 107.994 193.505 107.994 195.197C107.994 196.889 107.648 198.427 106.957 199.811C106.274 201.195 105.218 202.298 103.787 203.12C102.357 203.934 100.524 204.34 98.2901 204.34H91.3344V201.255H98.1779C99.7204 201.255 100.959 200.989 101.894 200.456C102.829 199.923 103.507 199.203 103.927 198.296C104.358 197.38 104.573 196.347 104.573 195.197C104.573 194.047 104.358 193.019 103.927 192.112C103.507 191.205 102.824 190.495 101.88 189.98C100.936 189.457 99.6831 189.195 98.1218 189.195H92.0076V214.83H88.5297ZM111.129 221.786V211.745H112.98C113.615 211.165 114.214 210.347 114.775 209.291C115.345 208.225 115.826 206.804 116.219 205.028C116.621 203.242 116.887 200.975 117.018 198.226L117.635 186.11H134.688V211.745H137.997V221.73H134.688V214.83H114.438V221.786H111.129ZM117.131 211.745H131.378V189.195H120.777L120.328 198.226C120.216 200.32 120.019 202.218 119.739 203.92C119.458 205.612 119.099 207.112 118.659 208.421C118.22 209.721 117.71 210.829 117.131 211.745ZM167.653 211.52L167.261 221.617H163.671V214.83H161.651V211.52H167.653ZM143.253 214.83V186.11H146.562V211.633H161.371V186.11H164.681V214.83H143.253ZM172.909 214.83V186.11H190.242V189.195H176.387V198.899H189.344V201.985H176.387V211.745H190.466V214.83H172.909Z" fill="white"/>
<path d="M208.414 214.83V186.11H225.747V189.195H211.892V198.17H219.184C221.241 198.17 222.975 198.507 224.387 199.18C225.808 199.853 226.883 200.802 227.612 202.027C228.351 203.251 228.72 204.696 228.72 206.36C228.72 208.024 228.351 209.492 227.612 210.763C226.883 212.035 225.808 213.03 224.387 213.75C222.975 214.47 221.241 214.83 219.184 214.83H208.414ZM211.892 211.801H219.184C220.493 211.801 221.601 211.539 222.508 211.016C223.424 210.483 224.116 209.8 224.583 208.968C225.06 208.127 225.299 207.239 225.299 206.304C225.299 204.929 224.77 203.747 223.714 202.756C222.657 201.755 221.148 201.255 219.184 201.255H211.892V211.801ZM234.445 186.11H237.867V208.716H238.148L253.854 186.11H257.219V214.83H253.742V192.28H253.461L237.811 214.83H234.445V186.11ZM273.378 215.223C271.527 215.223 269.877 214.905 268.428 214.269C266.988 213.633 265.843 212.75 264.992 211.619C264.15 210.478 263.692 209.155 263.618 207.65H267.152C267.226 208.576 267.544 209.375 268.105 210.048C268.666 210.712 269.4 211.226 270.307 211.591C271.214 211.955 272.219 212.138 273.322 212.138C274.556 212.138 275.65 211.922 276.603 211.492C277.557 211.062 278.305 210.464 278.847 209.697C279.389 208.931 279.66 208.043 279.66 207.033C279.66 205.977 279.399 205.046 278.875 204.242C278.352 203.429 277.585 202.793 276.575 202.335C275.566 201.877 274.332 201.648 272.873 201.648H270.573V198.563H272.873C274.014 198.563 275.014 198.357 275.874 197.946C276.744 197.534 277.421 196.955 277.907 196.207C278.403 195.459 278.651 194.58 278.651 193.57C278.651 192.598 278.436 191.752 278.006 191.032C277.576 190.312 276.968 189.751 276.183 189.349C275.407 188.947 274.49 188.746 273.434 188.746C272.443 188.746 271.508 188.929 270.629 189.293C269.76 189.649 269.049 190.167 268.498 190.85C267.946 191.523 267.647 192.336 267.6 193.29H264.235C264.291 191.785 264.744 190.467 265.595 189.335C266.446 188.195 267.558 187.307 268.932 186.671C270.316 186.035 271.835 185.717 273.49 185.717C275.266 185.717 276.79 186.077 278.062 186.797C279.333 187.508 280.31 188.447 280.993 189.616C281.675 190.784 282.016 192.047 282.016 193.402C282.016 195.02 281.591 196.399 280.74 197.539C279.899 198.68 278.754 199.47 277.304 199.909V200.133C279.118 200.433 280.535 201.204 281.554 202.447C282.573 203.681 283.082 205.21 283.082 207.033C283.082 208.594 282.657 209.997 281.806 211.24C280.965 212.474 279.815 213.446 278.356 214.157C276.898 214.867 275.238 215.223 273.378 215.223ZM289.323 214.83V186.11H292.8V198.899H308.114V186.11H311.592V214.83H308.114V201.985H292.8V214.83H289.323ZM318.554 214.83V186.11H335.887V189.195H322.032V198.899H334.99V201.985H322.032V211.745H336.112V214.83H318.554ZM365.266 195.085H361.789C361.583 194.085 361.223 193.206 360.709 192.449C360.204 191.691 359.587 191.056 358.858 190.541C358.138 190.018 357.339 189.625 356.46 189.363C355.581 189.102 354.665 188.971 353.711 188.971C351.972 188.971 350.397 189.41 348.985 190.289C347.583 191.168 346.466 192.463 345.634 194.173C344.811 195.884 344.4 197.983 344.4 200.47C344.4 202.957 344.811 205.056 345.634 206.767C346.466 208.477 347.583 209.772 348.985 210.651C350.397 211.53 351.972 211.969 353.711 211.969C354.665 211.969 355.581 211.838 356.46 211.577C357.339 211.315 358.138 210.927 358.858 210.413C359.587 209.889 360.204 209.249 360.709 208.491C361.223 207.725 361.583 206.846 361.789 205.855H365.266C365.005 207.323 364.528 208.636 363.836 209.796C363.144 210.955 362.284 211.941 361.256 212.755C360.227 213.559 359.073 214.171 357.792 214.592C356.521 215.012 355.16 215.223 353.711 215.223C351.262 215.223 349.083 214.624 347.176 213.428C345.269 212.231 343.769 210.529 342.675 208.323C341.581 206.117 341.034 203.499 341.034 200.47C341.034 197.441 341.581 194.823 342.675 192.617C343.769 190.411 345.269 188.709 347.176 187.512C349.083 186.316 351.262 185.717 353.711 185.717C355.16 185.717 356.521 185.928 357.792 186.348C359.073 186.769 360.227 187.386 361.256 188.2C362.284 189.004 363.144 189.985 363.836 191.144C364.528 192.294 365.005 193.608 365.266 195.085ZM372.064 214.83H368.418L378.964 186.11H382.554L393.1 214.83H389.453L380.871 190.654H380.647L372.064 214.83ZM373.411 203.611H388.107V206.696H373.411V203.611Z" fill="white"/>
<mask id="mask0_2118_12018" style="mask-type:luminance" maskUnits="userSpaceOnUse" x="0" y="0" width="429" height="271">
<path d="M428.72 0H0V270.58H428.72V0Z" fill="white"/>
</mask>
<g mask="url(#mask0_2118_12018)">
<path fill-rule="evenodd" clip-rule="evenodd" d="M178.41 98.17L219.34 57.24C226.749 49.9942 236.716 45.9626 247.079 46.0203C257.442 46.0779 267.364 50.2201 274.692 57.5479C282.02 64.8757 286.162 74.7978 286.22 85.1607C286.277 95.5236 282.246 105.491 275 112.9L270.1 117.79L258.65 106.34L263.46 101.53C267.804 97.1857 270.245 91.2937 270.245 85.15C270.245 79.0063 267.804 73.1142 263.46 68.77C259.116 64.4257 253.224 61.9852 247.08 61.9852C240.936 61.9852 235.044 64.4257 230.7 68.77L201.3 98.17L229.37 126.23L217.92 137.68L178.59 98.35L178.41 98.17Z" fill="white"/>
<path fill-rule="evenodd" clip-rule="evenodd" d="M265.21 122.91L225.89 83.58L214.44 95L242.5 123.06L214.74 150.82L165.26 101.34C161.156 96.9513 158.918 91.1392 159.019 85.1313C159.12 79.1233 161.552 73.3898 165.801 69.1416C170.051 64.8934 175.785 62.4631 181.793 62.3639C187.801 62.2647 193.613 64.5044 198 68.61L209.45 57.14C205.8 53.4794 201.465 50.5736 196.691 48.5885C191.918 46.6033 186.801 45.5778 181.632 45.5704C176.462 45.5629 171.342 46.5738 166.563 48.5452C161.784 50.5166 157.441 53.4099 153.78 57.06C150.119 60.7101 147.214 65.0454 145.228 69.8185C143.243 74.5916 142.218 79.709 142.21 84.8784C142.203 90.0479 143.214 95.1681 145.185 99.9469C147.157 104.726 150.05 109.069 153.7 112.73L203.27 162.3L203.2 162.37L214.66 173.81L265.4 123.1L265.21 122.91Z" fill="white"/>
</g>
</g>
<defs>
<clipPath id="clip0_2118_12018">
<rect width="428.72" height="270.58" fill="white"/>
</clipPath>
</defs>
</svg>
