<svg width="41" height="40" viewBox="0 0 41 40" fill="none" xmlns="http://www.w3.org/2000/svg">
<circle cx="20.1089" cy="20" r="20" fill="#F5F5F5"/>
<path fill-rule="evenodd" clip-rule="evenodd" d="M12.3434 22.5245C12.3981 22.5429 12.4533 22.556 12.5085 22.5641C12.5687 22.7054 12.6464 22.8884 12.7371 23.1023C12.9584 23.6243 13.2567 24.3303 13.5645 25.0669C14.1923 26.569 14.8256 28.1174 14.9655 28.5606C15.1386 29.1085 15.3216 29.481 15.5214 29.7353C15.6247 29.8668 15.7442 29.9817 15.884 30.0686C15.9544 30.1124 16.0287 30.1483 16.1063 30.175C16.1097 30.1762 16.1131 30.1774 16.1166 30.1785C16.5166 30.3295 16.8813 30.2666 17.1096 30.1897C17.2318 30.1485 17.3306 30.0988 17.4007 30.0586C17.4364 30.038 17.4666 30.0189 17.4907 30.0027L17.4963 29.9988L21.0291 27.7957L25.1098 30.9242C25.17 30.9704 25.2356 31.0091 25.3052 31.0395C25.7954 31.2534 26.2702 31.328 26.7167 31.267C27.1625 31.2061 27.5165 31.0188 27.78 30.8081C28.038 30.6016 28.2129 30.3704 28.3218 30.1986C28.3774 30.1109 28.4192 30.0333 28.4487 29.9739C28.4635 29.944 28.4754 29.9183 28.4846 29.8976L28.4963 29.8703L28.5008 29.8596L28.5027 29.8551L28.5035 29.853L28.5043 29.851C28.5257 29.7974 28.5422 29.7419 28.5534 29.6853L32.2787 10.9034C32.2906 10.8434 32.2966 10.7823 32.2966 10.721C32.2966 10.171 32.0894 9.64801 31.6021 9.33064C31.1856 9.0594 30.7216 9.04772 30.4284 9.06998C30.1121 9.09399 29.82 9.17207 29.6239 9.23447C29.5219 9.26694 29.4364 9.29827 29.3747 9.32217C29.3437 9.33418 29.3183 9.34449 29.2994 9.35235L29.2852 9.35833L8.39301 17.554L8.39031 17.555C8.37699 17.5598 8.3599 17.5662 8.33959 17.5741C8.29913 17.5899 8.24493 17.6121 8.18161 17.6408C8.05813 17.6967 7.88491 17.7842 7.70715 17.9059C7.42316 18.1004 6.77005 18.633 6.88002 19.5121C6.96776 20.2135 7.44824 20.6442 7.74097 20.8513C7.90171 20.9651 8.05442 21.0464 8.16563 21.0994C8.21723 21.1239 8.32435 21.1674 8.37083 21.1863L8.38256 21.1911L12.3434 22.5245ZM30.0163 11.0848L30.0134 11.0861C30.003 11.0906 29.9925 11.095 29.982 11.0991L9.06445 19.3047C9.05353 19.309 9.04253 19.3131 9.03145 19.317L9.01981 19.3214C9.00643 19.3266 8.98389 19.3357 8.95562 19.3485C8.93958 19.3558 8.92285 19.3637 8.90579 19.3723C8.92923 19.3855 8.95166 19.3969 8.9716 19.4064C8.99073 19.4155 9.00533 19.4218 9.01332 19.425L12.9416 20.7475C13.0135 20.7717 13.0805 20.8038 13.1421 20.8425L26.113 13.2493L26.1251 13.2422C26.1346 13.2366 26.147 13.2294 26.1619 13.221C26.1914 13.2043 26.232 13.1821 26.2802 13.1575C26.3702 13.1117 26.5143 13.0437 26.6765 12.9936C26.7895 12.9586 27.1226 12.8603 27.4827 12.9758C27.705 13.0471 27.9351 13.2003 28.0848 13.46C28.1591 13.589 28.1988 13.7185 28.2179 13.8371C28.2689 14.024 28.2608 14.2085 28.2209 14.3678C28.135 14.7109 27.8939 14.9786 27.6745 15.1833C27.4866 15.3588 25.0549 17.7036 22.6559 20.0184C21.4596 21.1727 20.2755 22.3156 19.3905 23.1699L18.8092 23.7311L26.1491 29.3584C26.3174 29.4187 26.4169 29.4156 26.463 29.4093C26.5178 29.4018 26.5627 29.3807 26.6086 29.344C26.6599 29.303 26.7047 29.2476 26.7382 29.1947L26.7396 29.1925L30.3527 10.9763C30.2991 10.9892 30.2449 11.0045 30.1926 11.0211C30.1334 11.04 30.0846 11.0579 30.0523 11.0705C30.0362 11.0767 30.0247 11.0814 30.0184 11.084L30.0163 11.0848ZM19.4397 26.5772L17.9754 25.4545L17.6205 27.7117L19.4397 26.5772ZM16.632 23.2268L18.0882 21.8209C18.9733 20.9665 20.1576 19.8235 21.354 18.6691L22.5696 17.4963L14.4196 22.2672L14.4633 22.3703C14.6855 22.8942 14.985 23.6034 15.2945 24.3439C15.5259 24.8976 15.7679 25.4806 15.9883 26.0203L16.3421 23.7698C16.3762 23.5528 16.4822 23.365 16.632 23.2268Z" fill="#EE5645"/>
</svg>
