<?xml version="1.0" encoding="UTF-8" standalone="no"?>
<!DOCTYPE svg PUBLIC "-//W3C//DTD SVG 1.1//EN" "http://www.w3.org/Graphics/SVG/1.1/DTD/svg11.dtd">
<svg xmlns="http://www.w3.org/2000/svg" xmlns:xlink="http://www.w3.org/1999/xlink" version="1.1" width="1508.96pt" height="427.009pt" viewBox="0 0 1508.96 427.009">
<g enable-background="new">
<g id="Layer-1" data-name="бг">
</g>
<g id="Layer-1" data-name="Layer 1">
<clipPath id="cp0">
<path transform="matrix(1,0,0,-1,0,427.009)" d="M 0 427.009 L 1508.959 427.009 L 1508.959 0 L 0 0 Z "/>
</clipPath>
<g clip-path="url(#cp0)">
<path transform="matrix(1,0,0,-1,0,-.00018310547)" d="M 0 0 L 528.674 0 L 528.674 -94.853 L 329.389 -94.853 L 329.389 -427.009 L 198.287 -427.009 L 198.287 -132.716 C 198.287 -111.892 181.248 -94.853 160.424 -94.853 L 0 -94.853 Z " fill="#ffffff" fill-rule="evenodd"/>
<path transform="matrix(1,0,0,-1,995.2784,94.04831)" d="M 0 0 L 0 -52.283 C 0 -90.96 -32.315 -120.438 -70.995 -120.438 C -47.492 -120.822 -31.4 -121.153 -12.955 -137.716 C .923 -150.176 9.312 -168.368 9.312 -188.372 L 9.312 -214.489 L 9.312 -238.907 L 9.312 -248.061 C 9.312 -265.613 2.565 -281.663 -8.461 -293.754 C -25.577 -317.456 -53.434 -332.961 -84.738 -332.961 L -205.898 -332.961 L -466.771 -332.961 L -466.771 -238.907 L -466.771 -214.489 L -466.771 -50.111 L -466.771 -39.335 L -466.771 -28.56 L -466.771 2.173 L -466.771 6.053 C -466.771 15.297 -464.962 24.135 -461.684 32.24 C -449.156 68.122 -414.744 94.049 -374.729 94.049 L -92.546 94.049 C -42.301 94.049 0 50.46 0 0 M -133.059 -158.921 L -159.122 -158.921 L -188.806 -158.921 L -336.344 -158.921 L -336.344 -239.849 L -188.806 -239.849 L -159.122 -239.849 L -133.059 -239.849 C -112.747 -239.849 -96.131 -223.229 -96.131 -202.918 L -96.131 -195.849 C -96.131 -175.538 -112.751 -158.921 -133.059 -158.921 M -141.806 -.348 L -159.122 -.348 L -188.806 -.348 L -336.344 -.348 L -336.344 -81.276 L -188.806 -81.276 L -159.122 -81.276 L -141.806 -81.276 C -121.494 -81.276 -104.878 -64.656 -104.878 -44.345 L -104.878 -37.276 C -104.878 -16.964 -121.494 -.348 -141.806 -.348 " fill="#ffffff" fill-rule="evenodd"/>
<path transform="matrix(1,0,0,-1,1042.6212,-.00018310547)" d="M 0 0 L 130.4 0 L 130.4 -155.885 L 130.588 -156.166 L 130.4 -156.138 L 130.4 -155.885 L 361.226 0 L 466.338 0 L 466.338 -75.128 L 259.433 -214.856 L 466.338 -352.361 L 466.338 -427.009 L 360.231 -427.009 L 130.4 -274.267 L 130.4 -427.009 L 0 -427.009 Z M 130.49 -274.131 L 130.4 -274.119 L 130.4 -274.267 Z " fill="#ffffff" fill-rule="evenodd"/>
</g>
</g>
</g>
</svg>
