<svg width="41" height="40" viewBox="0 0 41 40" fill="none" xmlns="http://www.w3.org/2000/svg">
<circle cx="20.1089" cy="20" r="20" fill="#F5F5F5"/>
<path fill-rule="evenodd" clip-rule="evenodd" d="M18.0911 15.4463C17.8015 15.2725 17.4408 15.2679 17.1469 15.4343C16.853 15.6008 16.6713 15.9124 16.6713 16.2502V23.7502C16.6713 24.0879 16.853 24.3996 17.1469 24.566C17.4408 24.7324 17.8015 24.7278 18.0911 24.5541L24.3411 20.8041C24.6235 20.6346 24.7963 20.3295 24.7963 20.0002C24.7963 19.6709 24.6235 19.3657 24.3411 19.1963L18.0911 15.4463ZM22.0366 20.0002L18.5463 22.0944V17.906L22.0366 20.0002Z" fill="#EE5645"/>
<path fill-rule="evenodd" clip-rule="evenodd" d="M26.3971 10.8018C22.2113 10.4743 18.0063 10.4743 13.8205 10.8018L11.0196 11.0209C9.31644 11.1541 7.92308 12.4306 7.64154 14.1157C6.99058 18.0117 6.99058 21.9886 7.64154 25.8846C7.92308 27.5697 9.31644 28.8462 11.0196 28.9794L13.8205 29.1986C18.0063 29.526 22.2113 29.526 26.3971 29.1986L29.198 28.9794C30.9012 28.8462 32.2946 27.5697 32.5761 25.8846C33.2271 21.9886 33.2271 18.0117 32.5761 14.1157C32.2946 12.4306 30.9012 11.1541 29.198 11.0209L26.3971 10.8018ZM13.9668 12.671C18.0552 12.3512 22.1624 12.3512 26.2509 12.671L29.0518 12.8902C29.8963 12.9562 30.5872 13.5892 30.7268 14.4247C31.3435 18.1161 31.3435 21.8842 30.7268 25.5756C30.5872 26.4111 29.8963 27.0441 29.0518 27.1101L26.2509 27.3293C22.1624 27.6491 18.0552 27.6491 13.9668 27.3293L11.1659 27.1101C10.3214 27.0441 9.6305 26.4111 9.4909 25.5756C8.87413 21.8842 8.87413 18.1161 9.4909 14.4247C9.6305 13.5892 10.3214 12.9562 11.1659 12.8902L13.9668 12.671Z" fill="#EE5645"/>
</svg>
